<?xml version="1.0" encoding="UTF-8" standalone="no"?>
<svg
   xmlns:dc="http://purl.org/dc/elements/1.1/"
   xmlns:cc="http://creativecommons.org/ns#"
   xmlns:rdf="http://www.w3.org/1999/02/22-rdf-syntax-ns#"
   xmlns:svg="http://www.w3.org/2000/svg"
   xmlns="http://www.w3.org/2000/svg"
   xmlns:sodipodi="http://sodipodi.sourceforge.net/DTD/sodipodi-0.dtd"
   xmlns:inkscape="http://www.inkscape.org/namespaces/inkscape"
   inkscape:version="1.0 (4035a4fb49, 2020-05-01)"
   sodipodi:docname="iconfinder_youtube_317714.svg"
   xml:space="preserve"
   width="32px"
   viewBox="0 0 32 32"
   version="1.0"
   id="Layer_1"
   height="32px"
   enable-background="new 0 0 32 32"><metadata
     id="metadata25"><rdf:RDF><cc:Work
         rdf:about=""><dc:format>image/svg+xml</dc:format><dc:type
           rdf:resource="http://purl.org/dc/dcmitype/StillImage" /></cc:Work></rdf:RDF></metadata><defs
     id="defs23" /><sodipodi:namedview
     inkscape:current-layer="g6"
     inkscape:window-maximized="1"
     inkscape:window-y="-8"
     inkscape:window-x="-8"
     inkscape:cy="16"
     inkscape:cx="8.7529412"
     inkscape:zoom="26.5625"
     showgrid="false"
     id="namedview21"
     inkscape:window-height="1017"
     inkscape:window-width="1920"
     inkscape:pageshadow="2"
     inkscape:pageopacity="0"
     guidetolerance="10"
     gridtolerance="10"
     objecttolerance="10"
     borderopacity="1"
     bordercolor="#666666"
     pagecolor="#ffffff" /><g
     id="g6"><path
       style="fill:#2e80ec;fill-opacity:1"
       id="path2"
       fill="#E02F2F"
       d="M31.67,9.179c0,0-0.312-2.353-1.271-3.389c-1.217-1.358-2.58-1.366-3.205-1.443C22.717,4,16.002,4,16.002,4   h-0.015c0,0-6.715,0-11.191,0.347C4.171,4.424,2.809,4.432,1.591,5.79C0.633,6.826,0.32,9.179,0.32,9.179S0,11.94,0,14.701v2.588   c0,2.763,0.32,5.523,0.32,5.523s0.312,2.352,1.271,3.386c1.218,1.358,2.815,1.317,3.527,1.459C7.677,27.919,15.995,28,15.995,28   s6.722-0.012,11.199-0.355c0.625-0.08,1.988-0.088,3.205-1.446c0.958-1.034,1.271-3.386,1.271-3.386s0.32-2.761,0.32-5.523v-2.588   C31.99,11.94,31.67,9.179,31.67,9.179z" /><polygon
       id="polygon4"
       points="12,10 12,22 22,16  "
       fill="#FFFFFF" /></g><g
     id="g8" /><g
     id="g10" /><g
     id="g12" /><g
     id="g14" /><g
     id="g16" /><g
     id="g18" /></svg>
