<?xml version="1.0" encoding="UTF-8" standalone="no"?>
<svg
   xmlns:dc="http://purl.org/dc/elements/1.1/"
   xmlns:cc="http://creativecommons.org/ns#"
   xmlns:rdf="http://www.w3.org/1999/02/22-rdf-syntax-ns#"
   xmlns:svg="http://www.w3.org/2000/svg"
   xmlns="http://www.w3.org/2000/svg"
   xmlns:sodipodi="http://sodipodi.sourceforge.net/DTD/sodipodi-0.dtd"
   xmlns:inkscape="http://www.inkscape.org/namespaces/inkscape"
   inkscape:version="1.0 (4035a4fb49, 2020-05-01)"
   sodipodi:docname="setup.svg"
   version="1.1"
   width="512"
   viewBox="0 0 512 512"
   height="512"
   enable-background="new 0 0 512 512"
   id="Capa_1">
  <metadata
     id="metadata15">
    <rdf:RDF>
      <cc:Work
         rdf:about="">
        <dc:format>image/svg+xml</dc:format>
        <dc:type
           rdf:resource="http://purl.org/dc/dcmitype/StillImage" />
      </cc:Work>
    </rdf:RDF>
  </metadata>
  <defs
     id="defs13" />
  <sodipodi:namedview
     inkscape:current-layer="Capa_1"
     inkscape:window-maximized="1"
     inkscape:window-y="-8"
     inkscape:window-x="1912"
     inkscape:cy="256"
     inkscape:cx="256"
     inkscape:zoom="1.6601562"
     showgrid="false"
     id="namedview11"
     inkscape:window-height="987"
     inkscape:window-width="1680"
     inkscape:pageshadow="2"
     inkscape:pageopacity="0"
     guidetolerance="10"
     gridtolerance="10"
     objecttolerance="10"
     borderopacity="1"
     bordercolor="#666666"
     pagecolor="#ffffff" />
  <g
     style="fill:#ffffff"
     id="g8">
    <path
       style="fill:#ffffff"
       id="path2"
       d="m466.88 210.877h-265.45c-13.6-17.77-35.03-29.25-59.08-29.25-24.06 0-45.48 11.48-59.08 29.25h-38.15c-24.88 0-45.12 20.24-45.12 45.12s20.24 45.12 45.12 45.12h38.15c29.868 39.026 88.345 38.957 118.16 0h265.45c24.88 0 45.12-20.24 45.12-45.12s-20.24-45.12-45.12-45.12zm-397.36 60.24h-24.4c-8.34 0-15.12-6.78-15.12-15.12s6.78-15.12 15.12-15.12h24.4c-2.054 9.922-2.054 20.314 0 30.24zm72.83 29.25c-19.16 0-35.52-12.2-41.71-29.25-10.493-28.794 10.964-59.49 41.71-59.49 19.15 0 35.52 12.2 41.71 29.25 10.504 28.827-10.998 59.49-41.71 59.49zm324.53-29.25h-251.7c2.054-9.923 2.054-20.314 0-30.24h251.7c8.34 0 15.12 6.78 15.12 15.12s-6.78 15.12-15.12 15.12z" />
    <path
       style="fill:#ffffff"
       id="path4"
       d="m45.12 119.497h258.52c29.85 39.002 88.326 38.955 118.14 0h45.1c24.88 0 45.12-20.25 45.12-45.13s-20.24-45.12-45.12-45.12h-45.09c-29.868-39.026-88.345-38.957-118.16 0h-258.51c-24.88 0-45.12 20.24-45.12 45.12s20.24 45.13 45.12 45.13zm390.42-60.25h31.34c8.34 0 15.12 6.78 15.12 15.12s-6.78 15.13-15.12 15.13h-31.35c2.044-9.78 2.087-20.214.01-30.25zm-114.54 0c14.12-38.894 69.298-38.899 83.42 0 3.552 9.745 3.545 20.523 0 30.25-14.126 38.888-69.297 38.878-83.42 0-3.536-9.704-3.56-20.48 0-30.25zm-275.88 0h244.76c-2.081 10.056-2.03 20.49.01 30.25h-244.77c-8.34 0-15.12-6.79-15.12-15.13s6.78-15.12 15.12-15.12z" />
    <path
       style="fill:#ffffff"
       id="path6"
       d="m466.88 392.497h-151.81c-29.85-39.002-88.326-38.955-118.14 0h-151.81c-24.88 0-45.12 20.25-45.12 45.13s20.24 45.12 45.12 45.12h151.8c13.6 17.77 35.02 29.25 59.08 29.25s45.48-11.48 59.08-29.25h151.8c24.88 0 45.12-20.24 45.12-45.12s-20.24-45.13-45.12-45.13zm-283.71 60.25h-138.05c-8.34 0-15.12-6.78-15.12-15.12s6.78-15.13 15.12-15.13h138.06c-2.052 9.818-2.079 20.255-.01 30.25zm72.83 29.25c-24.466 0-44.37-19.896-44.37-44.37 0-24.524 19.945-44.37 44.37-44.37 24.428 0 44.37 19.849 44.37 44.37 0 24.466-19.896 44.37-44.37 44.37zm210.88-29.25h-138.05c2.077-10.035 2.034-20.47-.01-30.25h138.06c8.34 0 15.12 6.79 15.12 15.13s-6.78 15.12-15.12 15.12z" />
  </g>
  <path
     id="path840"
     d="M 133.42118,299.11798 C 119.03564,295.79077 107.16162,285.86104 101.63147,272.53363 99.275269,266.8553 98.506608,262.78831 98.506608,256 c 0,-12.72965 4.564062,-23.11415 14.102602,-32.08733 7.83958,-7.37491 16.62098,-11.123 27.43785,-11.71106 19.62939,-1.06716 37.15048,10.71647 43.77679,29.44165 8.13811,22.99732 -4.52148,48.33173 -28.11561,56.26509 -5.91959,1.99042 -16.44203,2.56152 -22.28706,1.20963 z"
     style="fill:#ffffff;stroke-width:0.602353" />
  <path
     id="path842"
     d="m 133.42118,299.11798 c -12.20769,-2.8235 -22.86453,-10.57143 -29.06604,-21.1321 -10.497864,-17.87703 -7.190468,-39.54409 8.25407,-54.07321 5.21096,-4.90209 10.53884,-7.99932 17.49903,-10.17263 3.8269,-1.19494 5.76098,-1.40659 12.64941,-1.38424 7.27726,0.0236 8.63813,0.20133 12.95059,1.69126 28.10983,9.71182 39.38217,42.02419 23.13474,66.31611 -5.47279,8.18251 -13.58361,14.33368 -23.13474,17.54518 -5.91959,1.99042 -16.44203,2.56152 -22.28706,1.20963 z"
     style="fill:#ffffff;stroke-width:0.602353" />
  <path
     id="path844"
     d="m 133.42118,299.10758 c -9.30412,-2.17871 -15.22474,-5.4999 -21.98589,-12.33305 -5.68427,-5.74481 -8.3881,-9.89346 -10.60778,-16.27614 -5.810429,-16.70789 -1.397255,-34.1879 11.7552,-46.56078 5.23855,-4.92805 10.55315,-8.02046 17.52553,-10.19757 3.8269,-1.19494 5.76098,-1.40659 12.64941,-1.38424 7.27726,0.0236 8.63813,0.20133 12.95059,1.69126 28.66682,9.90426 39.68318,43.2059 22.33502,67.51717 -5.36151,7.51349 -13.25833,13.29215 -22.33502,16.34412 -5.94147,1.99778 -16.4599,2.56375 -22.28706,1.19923 z"
     style="fill:#ffffff;stroke-width:0.602353" />
  <path
     id="path846"
     d="m 133.42118,299.10758 c -9.30412,-2.17871 -15.22474,-5.4999 -21.98589,-12.33305 -7.68177,-7.76359 -11.26643,-14.8679 -12.795524,-25.359 -1.259315,-8.64015 0.999139,-19.62499 5.675094,-27.60296 1.10007,-1.87691 4.46253,-5.89195 7.47213,-8.9223 4.67462,-4.70685 6.29849,-5.90899 11.14368,-8.24965 25.68916,-12.41015 55.88338,1.9135 62.36133,29.58321 1.2159,5.19357 1.2159,14.35877 0,19.55234 -3.4933,14.92121 -14.74581,27.14302 -29.58376,32.13218 -5.94147,1.99778 -16.4599,2.56375 -22.28706,1.19923 z"
     style="fill:#ffffff;stroke-width:0.602353" />
  <path
     id="path848"
     d="m 134.36999,299.35555 c -9.40927,-1.98269 -15.77927,-5.45036 -22.63367,-12.32121 -5.96364,-5.97796 -8.65682,-10.06037 -10.90881,-16.53595 -3.314542,-9.53097 -3.32367,-19.43956 -0.0266,-28.92017 2.27917,-6.55376 4.94894,-10.60914 10.98612,-16.68795 4.68865,-4.72097 6.28394,-5.89998 11.14368,-8.2358 7.6632,-3.68329 13.4029,-4.8748 21.57548,-4.47887 19.6122,0.95013 36.29816,14.87965 40.78585,34.04823 1.2159,5.19357 1.2159,14.35877 0,19.55234 -3.4933,14.92121 -14.74581,27.14302 -29.58376,32.13218 -3.87443,1.30275 -6.1764,1.65836 -11.74589,1.81456 -3.80988,0.10684 -8.12644,-0.0585 -9.59236,-0.36736 z"
     style="fill:#ffffff;stroke-width:0.602353" />
  <path
     id="path850"
     d="m 131.91529,298.77782 c -2.4847,-0.66296 -6.81403,-2.33483 -9.62073,-3.71526 -4.1485,-2.04036 -6.12037,-3.53427 -10.54133,-7.98621 -5.98607,-6.02801 -8.67647,-10.11026 -10.92572,-16.57796 -3.314542,-9.53097 -3.32367,-19.43956 -0.0266,-28.92017 2.27917,-6.55376 4.94894,-10.60914 10.98612,-16.68795 4.68865,-4.72097 6.28394,-5.89998 11.14368,-8.2358 7.65407,-3.6789 13.39999,-4.87306 21.58164,-4.48527 10.49018,0.49722 19.43184,4.18116 27.22848,11.21807 6.53318,5.89657 11.54977,14.34316 13.56307,22.83656 1.22341,5.16115 1.21858,14.31167 -0.0104,19.55234 -3.4987,14.92033 -15.07814,27.47296 -29.71896,32.21672 -6.6237,2.14614 -17.2378,2.49828 -23.65925,0.78493 z"
     style="fill:#ffffff;stroke-width:0.602353" />
  <path
     id="path852"
     d="m 131.91529,298.77782 c -2.4847,-0.66296 -6.82164,-2.33653 -9.63764,-3.71904 -4.21807,-2.07085 -6.13338,-3.53075 -10.87263,-8.28739 -4.73388,-4.75125 -6.19418,-6.68046 -8.24593,-10.89374 -4.591719,-9.4291 -5.953505,-18.60154 -4.111399,-27.6927 2.045759,-10.09624 6.035739,-17.19256 13.743709,-24.44366 8.76487,-8.24536 19.475,-12.15252 31.72091,-11.57209 16.21798,0.7687 30.10571,10.01014 37.6669,25.06503 3.88086,7.72709 5.19195,19.72939 3.11783,28.54194 -3.51464,14.93307 -15.03733,27.46179 -29.5888,32.17218 -6.76636,2.19031 -17.31447,2.55804 -23.79295,0.82947 z"
     style="fill:#ffffff;stroke-width:0.602353" />
  <path
     id="path854"
     d="m 131.91529,298.77782 c -2.4847,-0.66296 -6.82164,-2.33653 -9.63764,-3.71904 -4.21807,-2.07085 -6.13338,-3.53075 -10.87263,-8.28739 -4.7155,-4.73281 -6.20471,-6.69681 -8.26022,-10.89374 -3.08035,-6.28949 -4.310947,-10.80405 -4.761548,-17.46824 -0.878223,-12.9885 4.219648,-25.1883 14.549968,-34.81981 8.82014,-8.22348 19.03137,-11.93314 31.33031,-11.38205 10.73792,0.48114 19.21635,3.87342 27.13904,10.85852 14.421,12.71439 18.97231,33.46076 11.1333,50.74931 -5.17465,11.41247 -15.0927,20.33431 -26.82763,24.13297 -6.76636,2.19031 -17.31447,2.55804 -23.79295,0.82947 z"
     style="fill:#ffffff;stroke-width:0.602353" />
  <path
     id="path856"
     d="m 134.92706,299.59619 c -3.52336,-0.67268 -9.63095,-2.8925 -13.55294,-4.92587 -3.01862,-1.56501 -5.85073,-3.81765 -9.9691,-7.92936 -4.73515,-4.72747 -6.19615,-6.6489 -8.26022,-10.86331 -3.08035,-6.28949 -4.310947,-10.80405 -4.761548,-17.46824 -0.877338,-12.9754 4.220628,-25.18926 14.522958,-34.79459 8.87927,-8.27853 19.00169,-11.9609 31.35732,-11.40727 12.00603,0.53796 20.43091,4.30499 29.23622,13.07245 8.68354,8.64621 12.71329,18.36664 12.73544,30.72 0.014,7.81138 -1.06014,12.28113 -4.7769,19.87765 -2.33729,4.77706 -3.6506,6.56813 -7.95022,10.84235 -9.10412,9.05035 -17.38952,12.65242 -29.84689,12.97597 -3.97553,0.10324 -7.90589,0.0584 -8.73412,-0.0998 z"
     style="fill:#ffffff;stroke-width:0.602353" />
  <path
     id="path858"
     d="m 134.92706,299.59619 c -3.53694,-0.67527 -9.63491,-2.89511 -13.55294,-4.93367 -2.92638,-1.5226 -5.89416,-3.85656 -9.69974,-7.62818 -6.06927,-6.01512 -9.07379,-10.76396 -11.56837,-18.28455 -1.337563,-4.03243 -1.531633,-5.64918 -1.530449,-12.74979 0.0012,-7.17796 0.188434,-8.69698 1.596309,-12.95059 2.36392,-7.14209 5.44763,-11.97192 11.57644,-18.13146 4.59262,-4.61566 6.3555,-5.92681 11.15437,-8.29619 7.5146,-3.71024 12.78146,-4.79863 21.36085,-4.41421 12.00603,0.53796 20.43091,4.30499 29.23622,13.07245 8.6663,8.62904 12.69806,18.33655 12.75873,30.72 0.0593,12.11057 -4.05099,21.99015 -12.78083,30.72 -9.03462,9.03461 -17.34699,12.65211 -29.81647,12.97597 -3.97553,0.10324 -7.90589,0.0584 -8.73412,-0.0998 z"
     style="fill:#ffffff;stroke-width:0.602353" />
  <path
     id="path860"
     d="m 216.07337,267.89647 c 0.61122,-4.09068 0.61062,-19.70605 -9.1e-4,-23.79983 l -0.47343,-3.16925 127.26872,0.15748 127.26872,0.15748 2.82289,1.39049 c 6.2527,3.07995 9.76495,9.85918 8.36015,16.13649 -1.28556,5.74449 -5.83464,10.3564 -11.48422,11.64283 -1.80275,0.4105 -44.83081,0.62214 -128.47251,0.63194 l -125.76192,0.0147 z"
     style="fill:#ffffff;stroke-width:0.602353" />
  <path
     id="path862"
     d="m 216.07337,267.89647 c 0.61122,-4.09068 0.61062,-19.70605 -9.1e-4,-23.79983 l -0.47343,-3.16925 127.26872,0.15748 127.26872,0.15748 2.71059,1.25879 c 6.16241,2.86181 9.87664,9.9936 8.47245,16.26819 -1.28556,5.74449 -5.83464,10.3564 -11.48422,11.64283 -1.80275,0.4105 -44.83081,0.62214 -128.47251,0.63194 l -125.76192,0.0147 z"
     style="fill:#ffffff;stroke-width:0.602353" />
  <path
     id="path864"
     d="m 216.08886,267.59529 c 0.58972,-4.46915 0.58972,-18.72143 0,-23.19058 l -0.45703,-3.46353 H 341.7207 c 142.33676,0 130.26716,-0.42247 135.43442,4.74059 5.27188,5.26759 5.95216,12.807 1.68686,18.69507 -2.20106,3.03848 -5.47233,5.23054 -9.00669,6.03532 -1.80275,0.4105 -44.8259,0.62215 -128.45703,0.63194 l -125.74643,0.0147 z"
     style="fill:#ffffff;stroke-width:0.602353" />
  <path
     id="path866"
     d="m 41.389767,270.20217 c -5.32107,-1.43094 -9.4591,-5.84647 -10.707688,-11.42575 -1.40648,-6.28481 2.10249,-13.06197 8.358568,-16.14358 2.654793,-1.30769 3.643847,-1.40245 16.610143,-1.59133 12.426731,-0.18103 13.750859,-0.10599 13.418375,0.76045 -1.079362,2.81277 -1.659291,14.5271 -1.030537,20.81641 0.363909,3.6401 0.818971,7.02834 1.011251,7.52941 0.305449,0.79599 -1.237002,0.90591 -12.213669,0.87039 -8.225731,-0.0266 -13.5587,-0.30835 -15.446443,-0.816 z"
     style="fill:#ffffff;stroke-width:0.602353" />
  <path
     id="path868"
     d="m 41.389767,270.20217 c -5.32107,-1.43094 -9.4591,-5.84647 -10.707688,-11.42575 -1.40648,-6.28481 2.10249,-13.06197 8.358568,-16.14358 2.654793,-1.30769 3.643847,-1.40245 16.610143,-1.59133 12.537098,-0.18264 13.753153,-0.11197 13.411101,0.7794 -1.020117,2.65839 -1.589643,14.51001 -0.998505,20.7785 0.34229,3.62968 0.782939,7.01792 0.979219,7.52942 0.315004,0.82088 -1.117082,0.92522 -12.206395,0.88934 -8.225731,-0.0266 -13.5587,-0.30835 -15.446443,-0.816 z"
     style="fill:#ffffff;stroke-width:0.602353" />
  <path
     id="path870"
     d="m 40.209165,88.234524 c -8.485336,-3.116412 -12.231374,-12.859034 -7.96107,-20.70499 1.924068,-3.535146 4.481317,-5.796571 7.95774,-7.037184 1.85922,-0.66349 24.137842,-0.81122 125.616935,-0.83297 l 123.35688,-0.02644 -0.47688,4.668235 c -0.61989,6.068109 -0.43807,19.017543 0.31292,22.287059 l 0.58802,2.56 -123.56892,-0.04244 C 62.718769,89.070306 42.096008,88.927505 40.209165,88.234524 Z"
     style="fill:#ffffff;stroke-width:0.602353" />
  <path
     id="path872"
     d="m 40.209165,88.234524 c -8.485336,-3.116412 -12.231374,-12.859034 -7.96107,-20.70499 1.924068,-3.535146 4.481317,-5.796571 7.95774,-7.037184 1.85922,-0.66349 24.137842,-0.81122 125.616935,-0.83297 l 123.35688,-0.02644 -0.47688,4.668235 c -0.59873,5.860982 -0.42159,18.206631 0.31546,21.985883 l 0.558,2.861176 -123.55518,-0.04244 C 62.716692,89.070306 42.096005,88.927504 40.209165,88.234524 Z"
     style="fill:#ffffff;stroke-width:0.602353" />
  <path
     id="path874"
     d="M 351.31001,116.84738 C 340.14043,113.92078 329.3083,105.36846 324.23775,95.472941 320.15539,87.505918 318.97577,82.783473 318.9716,74.390588 318.9646,61.24018 323.30401,51.18929 332.89229,42.144197 348.499,27.421621 373.7945,26.637189 390.74222,40.35023 c 12.51397,10.125526 18.61376,28.591537 14.64483,44.334592 -4.07541,16.165428 -15.8674,28.141008 -31.69575,32.189218 -6.20087,1.58592 -16.27254,1.57392 -22.38129,-0.0267 z"
     style="fill:#ffffff;stroke-width:0.602353" />
  <path
     id="path876"
     d="m 351.31001,116.84738 c -14.55453,-3.8135 -26.6364,-15.77132 -30.9292,-30.611639 -4.5135,-15.603315 0.19675,-32.383372 12.32333,-43.901261 13.15967,-12.499117 33.38091,-15.375001 50.09115,-7.124012 17.65226,8.716129 27.45509,30.183615 22.59176,49.474354 -4.07541,16.165428 -15.8674,28.141008 -31.69575,32.189218 -6.20087,1.58592 -16.27254,1.57392 -22.38129,-0.0267 z"
     style="fill:#ffffff;stroke-width:0.602353" />
  <path
     id="path878"
     d="m 436.55003,85.684706 c 0.58946,-4.467151 0.58946,-18.121084 0,-22.588235 l -0.45702,-3.46353 16.72055,0.02644 c 12.38507,0.01958 17.30657,0.235565 18.9806,0.83297 8.38855,2.993577 12.22462,12.919633 7.99575,20.689468 -0.94379,1.734045 -2.61664,3.839783 -3.71746,4.679417 -3.99736,3.048936 -5.6983,3.287 -23.48521,3.287 h -16.49423 z"
     style="fill:#ffffff;stroke-width:0.602353" />
  <path
     id="path880"
     d="m 436.52538,85.383529 c 0.60984,-4.766356 0.62419,-17.743542 0.0247,-22.287058 l -0.45702,-3.46353 16.72055,0.02644 c 12.38507,0.01958 17.30657,0.235565 18.9806,0.83297 8.38855,2.993577 12.22462,12.919633 7.99575,20.689468 -0.94379,1.734045 -2.61664,3.839783 -3.71746,4.679417 -3.99821,3.049579 -5.69633,3.287 -23.50986,3.287 h -16.51888 z"
     style="fill:#ffffff;stroke-width:0.602353" />
  <path
     id="path922"
     d="m 40.205835,88.288826 c -3.476423,-1.240612 -6.033672,-3.502037 -7.95774,-7.037184 -4.2679,-7.841539 -0.468829,-17.752147 7.95774,-20.759292 1.859224,-0.663491 24.14052,-0.81122 125.633205,-0.83297 l 123.37317,-0.02644 -0.49317,4.969412 c -0.59734,6.019255 -0.42614,17.757775 0.31627,21.684706 l 0.54092,2.861176 -123.55518,-0.02644 C 64.376306,89.100046 42.065101,88.952333 40.205835,88.288826 Z"
     style="fill:#ffffff;stroke-width:0.602353" />
  <path
     id="path924"
     d="m 351.31001,116.84738 c -9.05596,-2.3728 -19.28621,-9.36663 -24.24621,-16.57573 -12.82613,-18.642146 -10.65088,-42.282891 5.30159,-57.617993 18.60923,-17.889043 49.62796,-15.73205 64.94915,4.516459 16.9333,22.379084 9.54426,54.902664 -15.15101,66.688624 -8.91394,4.25423 -21.40529,5.46421 -30.85352,2.98864 z"
     style="fill:#ffffff;stroke-width:0.602353" />
  <path
     id="path926"
     d="m 436.53852,85.082353 c 0.59161,-5.133841 0.60555,-16.754446 0.026,-21.684706 l -0.44253,-3.764706 16.70606,0.02644 c 17.86422,0.02827 19.38367,0.234169 23.19801,3.14351 1.08452,0.827206 2.76115,2.954195 3.72583,4.726644 4.3248,7.946078 0.53329,17.665802 -8.07605,20.703355 -2.07898,0.733505 -5.87338,0.915346 -19.10012,0.915346 h -16.50575 z"
     style="fill:#ffffff;stroke-width:0.602353" />
  <path
     id="path928"
     d="m 216.11678,266.99294 c 0.55136,-5.22432 0.55136,-16.76156 0,-21.98588 l -0.4291,-4.06588 h 126.06095 c 142.30542,0 130.23926,-0.42244 135.40649,4.74059 6.63275,6.62736 5.87446,16.33445 -1.72904,22.13383 -1.41637,1.0803 -3.87549,2.21673 -5.59454,2.5854 -2.16173,0.46361 -40.13053,0.65782 -128.60559,0.65782 H 215.68768 Z"
     style="fill:#ffffff;stroke-width:0.602353" />
  <path
     id="path930"
     d="m 131.65199,298.81186 c -2.29823,-0.64035 -6.49203,-2.31062 -9.31956,-3.71172 -4.12996,-2.04648 -6.2226,-3.62439 -10.64113,-8.02379 -6.0886,-6.06222 -9.10314,-10.83312 -11.5798,-18.32656 -1.302724,-3.94154 -1.533189,-5.76512 -1.573265,-12.44861 -0.0508,-8.47262 1.003381,-13.34138 4.295215,-19.8375 4.09042,-8.07205 12.0214,-15.86993 20.29419,-19.9536 7.2755,-3.59138 12.63923,-4.68325 21.13589,-4.30253 12.00603,0.53796 20.43091,4.30499 29.23622,13.07245 8.6663,8.62904 12.69806,18.33655 12.75873,30.72 0.0593,12.11057 -4.05099,21.99015 -12.78083,30.72 -9.08544,9.08544 -17.2845,12.63132 -30.11765,13.0251 -6.11166,0.18753 -8.31622,0.0118 -11.70801,-0.93324 z"
     style="fill:#ffffff;stroke-width:0.602353" />
  <path
     id="path932"
     d="m 41.389767,270.20217 c -5.32107,-1.43094 -9.4591,-5.84647 -10.707688,-11.42575 -1.405993,-6.28264 2.306804,-13.41525 8.470862,-16.27328 2.449102,-1.13555 4.040623,-1.27636 16.497849,-1.45964 12.695436,-0.18678 13.756608,-0.12296 13.400185,0.80586 -0.968723,2.52445 -1.520083,14.54364 -0.948262,20.67129 0.330016,3.53647 0.74606,6.90429 0.924543,7.48406 0.302139,0.98143 -0.540092,1.05131 -12.2149,1.01346 -8.206234,-0.0266 -13.535739,-0.30859 -15.422589,-0.816 z"
     style="fill:#ffffff;stroke-width:0.602353" />
  <path
     id="path934"
     d="m 40.205835,451.50765 c -8.388549,-2.99358 -12.224617,-12.91963 -7.995743,-20.68947 0.943786,-1.73404 2.616643,-3.83978 3.717459,-4.67941 4.505347,-3.4364 1.014548,-3.28701 76.804959,-3.28701 h 69.81398 l -0.46854,4.06589 c -0.60163,5.22086 -0.60163,16.16266 0,21.38353 l 0.46854,4.06588 -70.0403,-0.0264 c -56.935718,-0.0215 -70.463164,-0.17734 -72.300355,-0.83297 z"
     style="fill:#ffffff;stroke-width:0.602353" />
  <path
     id="path936"
     d="m 249.69681,481.24731 c -9.42909,-1.46605 -17.47198,-5.61716 -24.41681,-12.60203 -5.87138,-5.90523 -8.40019,-9.87036 -11.04959,-17.32558 -1.75841,-4.94803 -1.87544,-5.80358 -1.87544,-13.71029 0,-7.90671 0.11703,-8.76226 1.87544,-13.71028 2.6494,-7.45523 5.17821,-11.42035 11.04959,-17.32559 8.61554,-8.66521 18.57488,-12.8221 30.72,-12.8221 12.14512,0 22.10446,4.15689 30.72,12.8221 5.87138,5.90524 8.40019,9.87036 11.04959,17.32559 1.76464,4.96555 1.87419,5.77557 1.8542,13.71028 -0.0189,7.49738 -0.19953,8.96755 -1.62828,13.25177 -2.33315,6.99613 -5.47778,11.96521 -11.27705,17.81979 -4.2825,4.32333 -6.05878,5.63029 -10.84235,7.97763 -3.14645,1.54399 -7.28327,3.20161 -9.19294,3.6836 -4.63818,1.17066 -12.56267,1.59291 -16.98636,0.90511 z"
     style="fill:#ffffff;stroke-width:0.602353" />
  <path
     id="path938"
     d="m 329.92205,448.30118 c 0.60163,-5.22087 0.60163,-16.16267 0,-21.38353 l -0.46854,-4.06589 h 69.81398 c 75.79041,0 72.29961,-0.14939 76.80496,3.28701 1.10082,0.83963 2.77367,2.94537 3.71746,4.67941 4.22887,7.76984 0.3928,17.69589 -7.99575,20.68947 -1.83718,0.65563 -15.36463,0.81148 -72.30035,0.83297 l -70.0403,0.0264 z"
     style="fill:#ffffff;stroke-width:0.602353" />
</svg>
